<svg width="50" height="50" viewBox="0 0 50 50" fill="none" xmlns="http://www.w3.org/2000/svg">
<path d="M3.05094 13.1021C3.95028 11.1538 5.17577 9.37153 6.72776 7.75528C8.27992 6.13886 10.0356 4.75806 11.9944 3.61273C13.9532 2.46739 16.0568 1.57877 18.3045 0.94719C20.5525 0.315615 22.811 0 25.0804 0C27.2856 0 29.4316 0.289011 31.5192 0.867034C33.6065 1.44506 35.5707 2.26925 37.4118 3.33961C39.253 4.41014 40.9443 5.69471 42.4857 7.19332C44.0272 8.69193 45.3544 10.3724 46.4678 12.235C47.5811 14.0976 48.4482 16.1047 49.0692 18.2563C49.6899 20.4079 50.0005 22.661 50.0005 25.016C50.0005 27.3066 49.7006 29.5172 49.1013 31.6475C48.5019 33.7777 47.6615 35.7683 46.5804 37.6205C45.499 39.4722 44.1987 41.1583 42.6785 42.6781C41.1586 44.1982 39.4724 45.4988 37.6209 46.5799C35.7688 47.6613 33.778 48.5014 31.6477 49.101C29.5177 49.7004 27.307 50 25.0163 50C22.6614 50 20.392 49.6846 18.2082 49.0526C16.0245 48.4214 13.9909 47.5326 12.1069 46.3873C10.2228 45.2419 8.5102 43.8661 6.96875 42.2606C5.4273 40.6551 4.1213 38.8673 3.05094 36.8977H19.8139C19.0861 36.3838 18.4117 35.7952 17.7909 35.1315C17.17 34.468 16.6134 33.772 16.1209 33.044H1.25261C1.12426 32.5517 1.00092 32.0433 0.883273 31.5186C0.765457 30.9943 0.652996 30.4858 0.546064 29.9936H14.7403C14.5046 29.4152 14.3227 28.8213 14.1942 28.2112C14.0659 27.6012 13.9695 27.0176 13.9052 26.461H0.0963947C0.0535526 26.1827 0.0267763 25.9366 0.0160658 25.7225C0.00535529 25.5083 0 25.2729 0 25.016C0 24.7161 0.00535529 24.4378 0.0160658 24.1809C0.0267763 23.9242 0.0535526 23.6779 0.0963947 23.4424H13.9695C14.0337 22.1792 14.2904 21.0127 14.7401 19.9421H0.546064C0.653169 19.4069 0.765457 18.8823 0.883273 18.3685C1.00092 17.8546 1.14551 17.3517 1.31688 16.8592H16.1853C16.6562 16.1313 17.1969 15.4568 17.8069 14.8361C18.4171 14.2153 19.0647 13.6373 19.7499 13.1019L3.05094 13.1021ZM25.0806 2.98651C21.9548 2.98651 18.9951 3.61273 16.2014 4.86517C13.4075 6.11761 10.9508 7.83561 8.83134 10.0193H28.9022C30.9145 10.0193 32.8146 10.4208 34.6022 11.2236C36.39 12.0262 37.9581 13.1076 39.3069 14.467C40.6556 15.8265 41.7206 17.416 42.5019 19.2359C43.2833 21.0555 43.6741 22.9825 43.6741 25.0161C43.6741 27.0498 43.2833 28.9714 42.5019 30.7805C41.7206 32.5895 40.6556 34.1738 39.3069 35.5332C37.9579 36.8927 36.3899 37.9686 34.6022 38.7607C32.8146 39.5529 30.9145 39.9487 28.9022 39.9487H8.76708C10.8864 42.2183 13.3486 43.9686 16.1528 45.1994C18.9574 46.4305 21.9332 47.0458 25.0804 47.0458C27.1142 47.0458 29.068 46.7836 30.941 46.2591C32.8144 45.7344 34.5699 44.9958 36.2076 44.0432C37.8453 43.0907 39.3334 41.9452 40.6713 40.607C42.0093 39.2693 43.1548 37.7867 44.1077 36.1596C45.0602 34.5324 45.7989 32.7821 46.3233 30.9088C46.8476 29.0355 47.1101 27.0926 47.1101 25.0802C47.1101 23.0466 46.8476 21.0928 46.3233 19.2197C45.7989 17.3464 45.06 15.5909 44.1077 13.953C43.1548 12.3154 42.0094 10.8219 40.6713 9.47328C39.3334 8.12445 37.8455 6.9684 36.2076 6.00515C34.5699 5.04172 32.8143 4.29768 30.941 3.77321C29.068 3.24874 27.1144 2.98651 25.0806 2.98651ZM17.9835 19.9423C17.7052 20.4775 17.4751 21.0289 17.293 21.596C17.1111 22.1634 16.9881 22.779 16.9237 23.4424H21.7729C21.8158 22.8217 21.9015 22.2223 22.0298 21.6441C22.1583 21.066 22.276 20.4989 22.3831 19.9421L17.9835 19.9423ZM22.3831 29.994C22.2331 29.4372 22.1048 28.8483 21.9979 28.2276C21.8907 27.6065 21.8158 27.0178 21.7731 26.4612H16.9238C16.9883 27.0178 17.1111 27.6014 17.2932 28.2113C17.4753 28.8215 17.6839 29.4156 17.9194 29.9938H22.3831V29.994ZM24.5347 36.1274C24.3633 35.7849 24.1439 35.3084 23.8763 34.6985C23.6088 34.0885 23.3679 33.5371 23.1537 33.0445H19.9425C21.2699 34.4362 22.8006 35.4636 24.5347 36.1274ZM23.218 16.8594C23.3894 16.324 23.598 15.7996 23.8442 15.2858C24.0904 14.7719 24.3419 14.269 24.5988 13.7765C23.6994 14.0976 22.8754 14.5204 22.1262 15.045C21.3768 15.5695 20.6704 16.1743 20.0067 16.8594H23.218ZM25.4658 19.9423C25.2732 20.4775 25.134 21.0394 25.0485 21.6282C24.9628 22.2169 24.8878 22.8219 24.8235 23.4426H32.8198C32.7557 22.158 32.5629 20.9914 32.242 19.9423H25.4658ZM24.8237 26.4612C24.8665 27.0178 24.9308 27.6014 25.0165 28.2113C25.102 28.8215 25.2305 29.4156 25.4019 29.9938H32.2421C32.4131 29.4154 32.5415 28.8215 32.6274 28.2113C32.713 27.6014 32.7771 27.0178 32.8198 26.4612H24.8237ZM31.1821 16.8594C30.9254 16.1955 30.6039 15.5534 30.2189 14.9325C29.8335 14.3117 29.3945 13.6908 28.9022 13.0699C28.367 13.6908 27.9066 14.3117 27.5212 14.9325C27.1361 15.5534 26.7827 16.1955 26.4617 16.8594H31.1821ZM26.4617 33.0444C26.7611 33.7084 27.1038 34.3611 27.4892 35.0035C27.8745 35.6458 28.3454 36.2774 28.9022 36.8981C29.8012 35.6564 30.5397 34.3718 31.1177 33.0444H26.4617ZM34.4898 33.0444C34.2543 33.5371 34.0187 34.0506 33.7834 34.586C33.5478 35.1214 33.2802 35.6349 32.9805 36.1274C34.8002 35.3997 36.3095 34.3718 37.5086 33.0444H34.4898ZM37.4443 16.8594C36.8445 16.1955 36.1971 15.6177 35.5012 15.1252C34.8056 14.6326 34.0083 14.226 33.1088 13.9048C33.3657 14.3329 33.6067 14.7987 33.8314 15.3017C34.0564 15.8048 34.2759 16.3239 34.49 16.8592L37.4443 16.8594ZM40.5271 23.4426C40.3985 22.158 40.0667 20.9914 39.5313 19.9423H35.3245C35.5814 21.0769 35.742 22.2439 35.8061 23.4426H40.5271ZM35.8063 26.4612C35.7635 27.0178 35.7046 27.6014 35.6299 28.2113C35.555 28.8215 35.4532 29.4156 35.3247 29.9938H39.5315C39.831 29.4154 40.0668 28.8215 40.2382 28.2113C40.4092 27.6014 40.5272 27.0178 40.5913 26.4612H35.8063Z" fill="#F95728"/>
</svg>
